<?xml version="1.0" encoding="utf-8"?>
<!-- Generator: Adobe Illustrator 24.1.3, SVG Export Plug-In . SVG Version: 6.00 Build 0)  -->
<svg version="1.1" id="Calque_1" xmlns="http://www.w3.org/2000/svg" xmlns:xlink="http://www.w3.org/1999/xlink" x="0px" y="0px"
	 viewBox="0 0 327 327" style="enable-background:new 0 0 327 327;" xml:space="preserve">
<style type="text/css">
	.st0{fill:#FFFFFF;}
</style>
<path class="st0" d="M203,0h71c4.4,0,8,3.6,8,8v311c0,4.4-3.6,8-8,8h-71c-4.4,0-8-3.6-8-8V8C195,3.6,198.6,0,203,0z"/>
<path class="st0" d="M53,0h71c4.4,0,8,3.6,8,8v311c0,4.4-3.6,8-8,8H53c-4.4,0-8-3.6-8-8V8C45,3.6,48.6,0,53,0z"/>
</svg>
